<?xml version="1.0" encoding="UTF-8"?><!DOCTYPE svg PUBLIC "-//W3C//DTD SVG 1.1//EN" "http://www.w3.org/Graphics/SVG/1.1/DTD/svg11.dtd"><svg xmlns="http://www.w3.org/2000/svg"><symbol id="svg-down" viewBox="0 0 13 7"><path fill-rule="evenodd" d="M5.96 6.47a.463.463 0 0 0 .64 0L12.43.76c.18-.17.18-.45 0-.63a.478.478 0 0 0-.65 0l-5.5 5.39L.78.13a.478.478 0 0 0-.65 0c-.17.18-.17.46 0 .63l5.83 5.71zm0 0"/></symbol><symbol id="svg-logo" viewBox="0 0 96 20"><path fill-rule="evenodd" d="M74.69.88h-5.3l21.25 19.11h5.3L74.69.88M80.83 14.48l-6.13 5.51h-5.3l6.12-5.51h5.31M89.82 6.39L95.95.88h-5.3l-6.13 5.51h5.3M13.28.88l-2.17 3.11 11.07 16h4.38L13.28.88M7.66 8.97H12L4.38 19.99H0L7.66 8.97M53.24.88l-2.17 3.11 11.07 16h4.38L53.24.88M47.62 8.97h4.34l-7.62 11.02h-4.38l7.66-11.02M35.23.88l.01 11.7c-.01 1.9-.9 4.27-3.89 4.47h-1.09v2.94s.95 0 1.57.01c1.44.02 3.52-.68 4.81-2.06 1.81-1.92 2.03-4.37 2.03-5.55V.88h-3.44"/></symbol><symbol id="svg-next" viewBox="219.5 -2.8 24.1 45.8"><path d="M243.3 21c.4-.4.4-.7.4-1.1 0-.4 0-.7-.4-1.1l-21-21.1c-.4-.7-1.5-.7-2.2 0-.7.7-.7 1.8 0 2.5l19.6 20-19.6 19.6c-.7.7-.7 1.8 0 2.5s1.8.7 2.2 0l21-21.3z"/></symbol></svg>