<?xml version="1.0" encoding="UTF-8"?><!DOCTYPE svg PUBLIC "-//W3C//DTD SVG 1.1//EN" "http://www.w3.org/Graphics/SVG/1.1/DTD/svg11.dtd"><svg xmlns="http://www.w3.org/2000/svg"><symbol id="svg-down" viewBox="0 0 13 7"><path fill-rule="evenodd" d="M5.96 6.47a.463.463 0 0 0 .64 0L12.43.76c.18-.17.18-.45 0-.63a.478.478 0 0 0-.65 0l-5.5 5.39L.78.13a.478.478 0 0 0-.65 0c-.17.18-.17.46 0 .63l5.83 5.71zm0 0"/></symbol><symbol id="svg-next" viewBox="219.5 -2.8 24.1 45.8"><path d="M243.3 21c.4-.4.4-.7.4-1.1 0-.4 0-.7-.4-1.1l-21-21.1c-.4-.7-1.5-.7-2.2 0-.7.7-.7 1.8 0 2.5l19.6 20-19.6 19.6c-.7.7-.7 1.8 0 2.5s1.8.7 2.2 0l21-21.3z"/></symbol></svg>