<?xml version="1.0" encoding="utf-8"?>
<!-- Generator: Avocode 2.6.0 - http://avocode.com -->
<svg height="20" width="96" xmlns:xlink="http://www.w3.org/1999/xlink" xmlns="http://www.w3.org/2000/svg" viewBox="0 0 96 20">
    <path fill="#e9e9e9" fill-rule="evenodd" d="M 74.69 0.88 L 69.39 0.88 L 90.64 19.99 L 95.94 19.99 L 74.69 0.88" />
    <path fill="#e9e9e9" fill-rule="evenodd" d="M 80.83 14.48 L 74.7 19.99 L 69.4 19.99 L 75.52 14.48 L 80.83 14.48" />
    <path fill="#e9e9e9" fill-rule="evenodd" d="M 89.82 6.39 L 95.95 0.88 L 90.65 0.88 L 84.52 6.39 L 89.82 6.39" />
    <path fill="#e9e9e9" fill-rule="evenodd" d="M 13.28 0.88 L 11.11 3.99 L 22.18 19.99 L 26.56 19.99 L 13.28 0.88" />
    <path fill="#e9e9e9" fill-rule="evenodd" d="M 7.66 8.97 L 12 8.97 L 4.38 19.99 L 0 19.99 L 7.66 8.97" />
    <path fill="#e9e9e9" fill-rule="evenodd" d="M 53.24 0.88 L 51.07 3.99 L 62.14 19.99 L 66.52 19.99 L 53.24 0.88" />
    <path fill="#e9e9e9" fill-rule="evenodd" d="M 47.62 8.97 L 51.96 8.97 L 44.34 19.99 L 39.96 19.99 L 47.62 8.97" />
    <path fill="#e9e9e9" fill-rule="evenodd" d="M 35.23 0.88 L 35.24 12.58 C 35.23 14.48 34.34 16.85 31.35 17.05 L 30.26 17.05 L 30.26 19.99 C 30.26 19.99 31.21 19.99 31.83 20 C 33.27 20.02 35.35 19.32 36.64 17.94 C 38.45 16.02 38.67 13.57 38.67 12.39 L 38.67 0.88 L 35.23 0.88" />
</svg>